<?xml version="1.0" encoding="iso-8859-1"?>
<!-- Generator: Adobe Illustrator 19.0.0, SVG Export Plug-In . SVG Version: 6.00 Build 0)  -->
<svg version="1.1" id="Capa_1" xmlns="http://www.w3.org/2000/svg" xmlns:xlink="http://www.w3.org/1999/xlink" x="0px" y="0px"
	 viewBox="0 0 512 512" style="enable-background:new 0 0 512 512;" xml:space="preserve">
<g>
	<g>
		<path d="M119.781,258.273c-1.86-1.859-4.43-2.93-7.07-2.93c-2.63,0-5.21,1.07-7.07,2.93s-2.93,4.44-2.93,7.07
			c0,2.63,1.07,5.21,2.93,7.07c1.87,1.859,4.44,2.93,7.07,2.93c2.63,0,5.21-1.071,7.07-2.93c1.86-1.86,2.93-4.44,2.93-7.07
			C122.711,262.713,121.641,260.133,119.781,258.273z"/>
	</g>
</g>
<g>
	<g>
		<path d="M169.134,255.344h-8.658c-5.523,0-10,4.478-10,10s4.477,10,10,10h8.658c5.523,0,10-4.478,10-10
			S174.657,255.344,169.134,255.344z"/>
	</g>
</g>
<g>
	<g>
		<path d="M215.31,258.273c-1.86-1.859-4.44-2.93-7.07-2.93c-2.63,0-5.21,1.07-7.07,2.93s-2.93,4.44-2.93,7.07
			c0,2.63,1.07,5.21,2.93,7.07c1.86,1.859,4.44,2.93,7.07,2.93c2.63,0,5.2-1.07,7.07-2.93c1.86-1.86,2.93-4.44,2.93-7.07
			C218.24,262.713,217.17,260.133,215.31,258.273z"/>
	</g>
</g>
<g>
	<g>
		<path d="M263.069,258.273c-1.86-1.859-4.44-2.93-7.07-2.93c-2.63,0-5.21,1.07-7.07,2.93s-2.93,4.44-2.93,7.07
			c0,2.63,1.07,5.21,2.93,7.07c1.86,1.859,4.44,2.93,7.07,2.93c2.63,0,5.21-1.071,7.07-2.93c1.86-1.86,2.93-4.44,2.93-7.07
			C265.999,262.713,264.929,260.133,263.069,258.273z"/>
	</g>
</g>
<g>
	<g>
		<path d="M310.829,258.273c-1.86-1.859-4.44-2.93-7.07-2.93c-2.63,0-5.21,1.07-7.07,2.93c-1.86,1.86-2.93,4.44-2.93,7.07
			c0,2.63,1.07,5.21,2.93,7.07c1.86,1.859,4.44,2.93,7.07,2.93c2.63,0,5.21-1.07,7.07-2.93c1.87-1.86,2.93-4.44,2.93-7.07
			C313.759,262.713,312.699,260.133,310.829,258.273z"/>
	</g>
</g>
<g>
	<g>
		<path d="M358.599,258.273c-1.87-1.859-4.44-2.93-7.08-2.93c-2.63,0-5.21,1.07-7.07,2.93c-1.86,1.86-2.93,4.44-2.93,7.07
			c0,2.63,1.07,5.21,2.93,7.07c1.87,1.859,4.44,2.93,7.07,2.93c2.629,0,5.209-1.071,7.08-2.93c1.86-1.86,2.92-4.44,2.92-7.07
			C361.519,262.713,360.459,260.133,358.599,258.273z"/>
	</g>
</g>
<g>
	<g>
		<path d="M406.357,258.273c-1.86-1.859-4.44-2.93-7.07-2.93c-2.64,0-5.21,1.07-7.07,2.93c-1.86,1.86-2.93,4.44-2.93,7.07
			c0,2.63,1.07,5.21,2.93,7.07c1.86,1.859,4.44,2.93,7.07,2.93c2.63,0,5.21-1.071,7.07-2.93c1.86-1.86,2.93-4.44,2.93-7.07
			C409.287,262.713,408.217,260.133,406.357,258.273z"/>
	</g>
</g>
<g>
	<g>
		<path d="M71.899,306.173h-7.897c-5.523,0-10,4.478-10,10s4.477,10,10,10h7.897c5.523,0,10-4.478,10-10
			S77.422,306.173,71.899,306.173z"/>
	</g>
</g>
<g>
	<g>
		<path d="M127.616,306.173h-7.896c-5.523,0-10,4.478-10,10s4.477,10,10,10h7.896c5.523,0,10-4.478,10-10
			S133.139,306.173,127.616,306.173z"/>
	</g>
</g>
<g>
	<g>
		<path d="M174.691,309.103c-1.87-1.859-4.44-2.93-7.08-2.93c-2.63,0-5.21,1.07-7.07,2.93c-1.86,1.86-2.92,4.44-2.92,7.07
			s1.06,5.21,2.92,7.07c1.86,1.859,4.44,2.93,7.07,2.93c2.64,0,5.21-1.07,7.08-2.93c1.86-1.86,2.92-4.44,2.92-7.07
			S176.551,310.963,174.691,309.103z"/>
	</g>
</g>
<g>
	<g>
		<path d="M223.07,309.103c-1.86-1.859-4.44-2.93-7.07-2.93c-2.63,0-5.21,1.07-7.07,2.93c-1.86,1.86-2.93,4.44-2.93,7.07
			s1.07,5.21,2.93,7.07c1.86,1.859,4.44,2.93,7.07,2.93c2.63,0,5.21-1.07,7.07-2.93c1.86-1.86,2.93-4.44,2.93-7.07
			S224.93,310.963,223.07,309.103z"/>
	</g>
</g>
<g>
	<g>
		<path d="M128.111,357.262c-1.86-1.86-4.44-2.93-7.07-2.93c-2.63,0-5.21,1.069-7.07,2.93c-1.86,1.86-2.93,4.44-2.93,7.07
			c0,2.64,1.07,5.21,2.93,7.069c1.86,1.86,4.44,2.931,7.07,2.931c2.63,0,5.21-1.07,7.07-2.931c1.86-1.859,2.93-4.43,2.93-7.069
			C131.041,361.702,129.971,359.122,128.111,357.262z"/>
	</g>
</g>
<g>
	<g>
		<path d="M176.501,357.262c-1.87-1.86-4.44-2.93-7.08-2.93c-2.63,0-5.21,1.069-7.07,2.93c-1.86,1.86-2.92,4.44-2.92,7.07
			c0,2.64,1.06,5.21,2.92,7.069c1.86,1.861,4.44,2.931,7.07,2.931c2.64,0,5.21-1.07,7.08-2.931c1.86-1.859,2.92-4.439,2.92-7.069
			C179.42,361.702,178.36,359.122,176.501,357.262z"/>
	</g>
</g>
<g>
	<g>
		<path d="M296.021,306.173H276.01c-5.523,0-10,4.477-10,10c0,5.522,4.477,10,10,10h20.011c5.523,0,10-4.478,10-10
			S301.544,306.173,296.021,306.173z"/>
	</g>
</g>
<g>
	<g>
		<path d="M277.999,354.335h-54.332c-5.523,0-10,4.478-10,10c0,5.522,4.477,10,10,10h54.332c5.523,0,10-4.478,10-10
			C287.999,358.813,283.522,354.335,277.999,354.335z"/>
	</g>
</g>
<g>
	<g>
		<path d="M447.997,306.173h-8.021c-5.523,0-10,4.478-10,10s4.477,10,10,10h8.021c5.523,0,10-4.478,10-10
			S453.52,306.173,447.997,306.173z"/>
	</g>
</g>
<g>
	<g>
		<path d="M210.07,56.936c-1.86-1.86-4.44-2.93-7.07-2.93c-2.63,0-5.21,1.069-7.07,2.93c-1.86,1.86-2.93,4.44-2.93,7.07
			c0,2.63,1.07,5.21,2.93,7.069c1.86,1.861,4.44,2.931,7.07,2.931c2.63,0,5.21-1.07,7.07-2.931c1.86-1.859,2.93-4.439,2.93-7.069
			C213,61.376,211.93,58.796,210.07,56.936z"/>
	</g>
</g>
<g>
	<g>
		<path d="M458.189,195.004H265.94c0.038-0.353,0.059-0.71,0.059-1.073v-40.25c0-8.629,7.02-15.648,15.648-15.648h39.06
			c23.167,0,42.013-18.848,42.013-42.013c0-23.166-18.847-42.013-42.013-42.013H241c-5.523,0-10,4.478-10,10c0,5.522,4.477,10,10,10
			h79.708c12.138,0,22.014,9.875,22.014,22.014c0,12.139-9.875,22.014-22.014,22.014h-39.06c-19.657,0-35.648,15.992-35.648,35.648
			v40.25c0,0.363,0.022,0.72,0.059,1.073H53.811c-29.67,0-53.807,24.279-53.807,54.122v119.066c0,29.67,24.138,53.808,53.807,53.808
			h189.855c5.523,0,10-4.478,10-10c0-5.522-4.477-10-10-10H53.811c-18.642,0-33.808-15.166-33.808-33.809V249.127
			c0-18.815,15.167-34.123,33.808-34.123H458.19c18.642,0,33.807,15.308,33.807,34.123v119.066c0,15.232-10.127,28.139-24,32.353
			V385.91c0-15.451-12.57-28.021-28.021-28.021c-3.305,0-6.477,0.579-9.423,1.635c-3.68-11.185-14.219-19.285-26.619-19.285
			c-2.787,0-5.479,0.415-8.021,1.176v-7.222c0-15.45-12.57-28.021-28.021-28.021c-15.451,0-28.021,12.57-28.021,28.021v7.222
			c-2.543-0.761-5.234-1.176-8.021-1.176c-15.451,0-28.021,12.57-28.021,28.021v24.08c-7.37-5.013-16.263-7.948-25.829-7.948
			c-5.523,0-10,4.478-10,10v68.912c0,16.238,5.557,32.188,15.646,44.909c1.974,2.489,4.894,3.787,7.841,3.786
			c2.177,0,4.369-0.707,6.208-2.165c4.327-3.432,5.053-9.722,1.621-14.049c-7.297-9.202-11.316-20.737-11.316-32.482v-56.916
			c8.466,3.534,14.665,11.419,15.829,20.841v6.205c0,5.522,4.477,10,10,10c0.036,0,0.071-0.005,0.107-0.005
			c0.036,0,0.071,0.005,0.107,0.005c5.523,0,10-4.478,10-10v-3c0-1.481-0.077-2.943-0.214-4.389v-57.785
			c0-4.423,3.599-8.021,8.021-8.021s8.021,3.599,8.021,8.021v65.174c0,5.522,4.477,10,10,10c5.523,0,10-4.478,10-10v-65.174v-34.067
			c0-4.423,3.599-8.021,8.021-8.021s8.021,3.598,8.021,8.021v34.067v65.174c0,5.522,4.477,10,10,10c5.523,0,10-4.478,10-10v-65.174
			c0-4.423,3.599-8.021,8.021-8.021s8.021,3.599,8.021,8.021v65.174c0,5.522,4.477,10,10,10s10-4.478,10-10V385.91
			c0-4.423,3.599-8.021,8.021-8.021s8.021,3.599,8.021,8.021V502c0,5.522,4.477,10,10,10s10-4.478,10-10v-80.911
			c25-4.626,43.999-26.577,43.999-52.895V249.127C511.996,219.283,487.858,195.004,458.189,195.004z"/>
	</g>
</g>
<g>
	<g>
		<path d="M166.001,0H10.003c-5.523,0-10,4.478-10,10v159.998c0,5.522,4.477,10,10,10h155.998c5.523,0,10-4.478,10-10V10
			C176.001,4.478,171.524,0,166.001,0z M156.001,159.998H20.003V20h135.998V159.998z"/>
	</g>
</g>
<g>
	<g>
		<path d="M121.285,119.985H54.719c-5.523,0-10,4.478-10,10s4.477,10,10,10h66.566c5.523,0,10-4.478,10-10
			S126.808,119.985,121.285,119.985z"/>
	</g>
</g>
<g>
	<g>
		<path d="M121.285,79.999H54.719c-5.523,0-10,4.478-10,10s4.477,10,10,10h66.566c5.523,0,10-4.478,10-10
			S126.808,79.999,121.285,79.999z"/>
	</g>
</g>
<g>
	<g>
		<path d="M121.285,40.006H54.719c-5.523,0-10,4.478-10,10c0,5.522,4.477,10,10,10h66.566c5.523,0,10-4.478,10-10
			C131.285,44.484,126.808,40.006,121.285,40.006z"/>
	</g>
</g>
<g>
</g>
<g>
</g>
<g>
</g>
<g>
</g>
<g>
</g>
<g>
</g>
<g>
</g>
<g>
</g>
<g>
</g>
<g>
</g>
<g>
</g>
<g>
</g>
<g>
</g>
<g>
</g>
<g>
</g>
</svg>
